<svg xmlns="http://www.w3.org/2000/svg" width="31.995" height="29.001" viewBox="0 0 31.995 29.001">
  <path id="Forma_1" data-name="Forma 1" d="M6.75,26.32A2.68,2.68,0,1,1,9.43,29,2.68,2.68,0,0,1,6.75,26.32ZM26.2,29a2.477,2.477,0,1,1,.2,0ZM10.554,20.687A1.184,1.184,0,0,1,9.41,19.82L4.576,2.364H1.183A1.182,1.182,0,1,1,1.183,0H5.465A1.184,1.184,0,0,1,6.609.867l4.833,17.455H24.62L29,8.275H14.4a1.182,1.182,0,1,1,0-2.364H30.814a1.176,1.176,0,0,1,.986.532,1.194,1.194,0,0,1,.1,1.123L26.493,19.977a1.186,1.186,0,0,1-1.085.709Z" fill="#222"/>
</svg>
